<svg width="835" height="310" viewBox="0 0 835 310" fill="none" xmlns="http://www.w3.org/2000/svg">
<mask id="mask0" mask-type="alpha" maskUnits="userSpaceOnUse" x="0" y="0" width="835" height="310">
<path d="M234.366 6.45063H118.488L0.440186 188.731V255.567H147.566V303.307H234.366V255.567H268.218V188.297H234.366V6.45063ZM147.132 96.7226V188.297H94.1842L147.132 96.7226Z" fill="black"/>
<path d="M416.555 309.383C498.581 309.383 552.831 256.869 552.831 153.143C552.831 52.8886 499.449 0.374634 416.555 0.374634C333.661 0.374634 280.279 52.8886 280.279 153.143C280.279 256.869 334.529 309.383 416.555 309.383ZM416.555 237.773C383.571 237.773 371.419 206.959 371.419 153.143C371.419 95.4206 383.571 67.6446 416.555 67.6446C449.539 67.6446 461.691 95.4206 461.691 153.143C461.691 206.959 449.539 237.773 416.555 237.773Z" fill="black"/>
<path d="M801.024 6.45063H685.146L567.098 188.731V255.567H714.224V303.307H801.024V255.567H834.876V188.297H801.024V6.45063ZM713.79 96.7226V188.297H660.842L713.79 96.7226Z" fill="black"/>
</mask>
<g mask="url(#mask0)">
<g style="mix-blend-mode:multiply" opacity="0.6">
<path style="mix-blend-mode:multiply" d="M-434.325 93.4495C-380.723 431.881 -62.7239 662.768 275.95 609.127C519.73 570.585 686.168 341.665 647.572 97.9815C619.786 -77.4544 454.94 -197.148 279.372 -169.341C218.665 -159.726 164.261 -126.405 128.129 -76.7087C91.9963 -27.0123 77.0953 34.9887 86.7039 95.6549C90.131 117.281 97.7868 138.02 109.234 156.687C120.682 175.354 135.697 191.585 153.423 204.452C171.148 217.319 191.237 226.57 212.542 231.678C233.846 236.785 255.95 237.649 277.591 234.22C309.058 229.232 337.256 211.959 355.985 186.199C374.714 160.44 382.44 128.302 377.463 96.8559C375.689 85.6441 371.722 74.8919 365.789 65.2133C359.856 55.5348 352.072 47.1196 342.884 40.4483C333.695 33.7771 323.281 28.9806 312.236 26.3327C301.191 23.6847 289.732 23.2373 278.513 25.016C262.197 27.6184 247.58 36.587 237.875 49.9514C228.169 63.3158 224.168 79.9829 226.751 96.2909C227.67 102.104 229.726 107.679 232.802 112.696C235.879 117.714 239.914 122.077 244.679 125.535C249.443 128.993 254.843 131.478 260.57 132.85C266.296 134.221 272.237 134.45 278.053 133.526C282.241 132.864 286.258 131.384 289.874 129.171C293.49 126.957 296.634 124.054 299.126 120.625C301.618 117.197 303.411 113.312 304.4 109.192C305.389 105.071 305.556 100.797 304.892 96.6123C304.419 93.5952 303.357 90.7009 301.765 88.0944C300.173 85.488 298.083 83.2205 295.614 81.4214C293.145 79.6224 290.346 78.327 287.376 77.6092C284.406 76.8914 281.323 76.7653 278.304 77.2381C273.922 77.9359 269.995 80.3432 267.386 83.9315C264.777 87.5198 263.699 91.9958 264.389 96.3767C264.635 97.9391 265.187 99.4377 266.013 100.787C266.839 102.136 267.923 103.309 269.203 104.238C270.484 105.168 271.935 105.836 273.474 106.204C275.013 106.572 276.61 106.633 278.173 106.384C279.298 106.208 280.377 105.813 281.351 105.222C282.285 104.616 283.097 103.841 283.747 102.937C284.423 102.018 284.907 100.971 285.167 99.8598C285.434 98.7525 285.48 97.6036 285.304 96.4786C285.174 95.671 284.889 94.8965 284.462 94.1984C284.034 93.4967 283.471 92.8868 282.806 92.4039C282.143 91.9252 281.394 91.5783 280.599 91.3822C279.799 91.1924 278.969 91.1609 278.156 91.2893C276.979 91.4793 275.925 92.1271 275.224 93.0911C274.523 94.055 274.233 95.2569 274.415 96.4342C274.557 97.2796 275.021 98.0369 275.71 98.5465C276.055 98.7963 276.444 98.9759 276.858 99.0751C277.272 99.1743 277.701 99.1911 278.121 99.1246C278.424 99.0779 278.715 98.972 278.977 98.8128C279.239 98.6537 279.467 98.4445 279.648 98.1971C280.008 97.694 280.155 97.0698 280.059 96.4591C280.025 96.243 279.948 96.0357 279.834 95.8491C279.72 95.6625 279.57 95.5003 279.393 95.3716C279.217 95.2392 279.016 95.1434 278.803 95.0901C278.589 95.0367 278.367 95.0269 278.15 95.0611C277.991 95.085 277.838 95.14 277.701 95.223C277.563 95.306 277.443 95.4153 277.348 95.5446C277.167 95.8066 277.09 96.127 277.134 96.4425C277.171 96.6728 277.297 96.8791 277.485 97.0175C277.67 97.1533 277.901 97.2104 278.128 97.1763" fill="url(#paint0_radial)"/>
</g>
<g style="mix-blend-mode:multiply" opacity="0.6">
<path style="mix-blend-mode:multiply" d="M-222.907 -408.971C-424.489 -131.73 -363.026 256.329 -85.6466 457.654C114.067 602.651 393.616 558.375 538.748 358.76C643.177 215.08 611.316 13.9205 467.592 -90.4975C417.874 -126.588 355.843 -141.462 295.142 -131.848C234.442 -122.234 180.043 -88.9191 143.91 -39.2313C131.029 -21.5152 121.764 -1.43771 116.647 19.8549C111.529 41.1474 110.658 63.2381 114.083 84.8653C117.509 106.492 125.164 127.233 136.611 145.902C148.058 164.571 163.073 180.803 180.798 193.671C206.571 212.381 238.727 220.092 270.194 215.108C301.66 210.124 329.86 192.854 348.589 167.096C355.269 157.912 360.073 147.504 362.728 136.465C365.382 125.427 365.834 113.974 364.058 102.762C362.282 91.5497 358.313 80.7974 352.378 71.1193C346.442 61.4412 338.657 53.0269 329.466 46.3571C322.85 41.5491 315.351 38.0913 307.397 36.1817C299.442 34.272 291.189 33.9479 283.108 35.2277C275.028 36.5075 267.279 39.3662 260.304 43.6405C253.329 47.9147 247.265 53.5206 242.459 60.1378C235.469 69.7537 232.587 81.7494 234.446 93.4868C236.305 105.224 242.753 115.742 252.372 122.728C259.301 127.75 267.942 129.819 276.397 128.48C284.852 127.141 292.431 122.503 297.469 115.585C301.091 110.601 302.585 104.384 301.621 98.3011C300.658 92.218 297.316 86.7669 292.331 83.1464C290.553 81.8546 288.537 80.9257 286.399 80.4127C284.261 79.8997 282.043 79.8126 279.871 80.1566C277.7 80.5005 275.617 81.2688 273.742 82.4173C271.868 83.5658 270.238 85.0721 268.946 86.8502C267.072 89.4348 266.3 92.6563 266.799 95.8084C267.298 98.9604 269.028 101.786 271.609 103.665C272.536 104.328 273.581 104.809 274.688 105.083C276.926 105.607 279.28 105.234 281.247 104.044C282.215 103.442 283.059 102.661 283.737 101.744C284.7 100.401 285.096 98.7319 284.837 97.0994C284.579 95.467 283.687 94.0022 282.355 93.0223C281.874 92.6776 281.332 92.4284 280.757 92.2882C279.597 92.0147 278.376 92.2081 277.357 92.8267C276.854 93.1377 276.415 93.5423 276.064 94.0188C275.814 94.3627 275.634 94.7525 275.535 95.1658C275.435 95.5792 275.418 96.008 275.485 96.4278C275.551 96.8477 275.7 97.2503 275.922 97.6127C276.144 97.9752 276.436 98.2903 276.78 98.5401C277.026 98.7223 277.309 98.8505 277.608 98.9163C278.211 99.0586 278.845 98.958 279.375 98.6365C279.639 98.4813 279.868 98.2722 280.046 98.0228C280.306 97.6601 280.412 97.2097 280.341 96.7693C280.307 96.5532 280.231 96.3459 280.117 96.1593C280.002 95.9727 279.852 95.8105 279.675 95.6819C279.413 95.4965 279.088 95.4208 278.771 95.4711C278.453 95.5214 278.168 95.6937 277.975 95.9511C277.91 96.0429 277.863 96.1468 277.838 96.2566C277.813 96.3665 277.81 96.4803 277.83 96.5913C277.865 96.8197 277.986 97.0261 278.168 97.1684" fill="url(#paint1_radial)"/>
</g>
<g style="mix-blend-mode:multiply" opacity="0.6">
<path style="mix-blend-mode:multiply" d="M282.048 -614.907C-56.6131 -561.268 -287.702 -243.428 -234.098 95.0166C-195.504 338.687 33.4632 504.994 277.299 466.374C452.867 438.567 572.671 273.789 544.882 98.34C535.274 37.6738 501.943 -16.6881 452.222 -52.7867C402.501 -88.8853 340.463 -103.764 279.756 -94.1484C236.06 -87.224 196.901 -63.2404 170.891 -27.4717C144.88 8.29712 134.148 52.9224 141.053 96.5909C146.034 128.038 163.311 156.217 189.085 174.929C214.858 193.642 247.016 201.354 278.485 196.37C301.145 192.781 321.453 180.343 334.94 161.792C348.427 143.242 353.99 120.099 350.403 97.4534C349.125 89.3758 346.266 81.6295 341.99 74.6579C337.713 67.6862 332.103 61.626 325.48 56.824C318.856 52.022 311.351 48.5724 303.391 46.6728C295.432 44.7731 287.176 44.4606 279.095 45.7531C273.279 46.6725 267.7 48.728 262.679 51.8022C257.657 54.8763 253.29 58.9089 249.828 63.6696C246.365 68.4302 243.875 73.8256 242.499 79.5478C241.124 85.2699 240.889 91.2066 241.81 97.0188C242.472 101.211 243.956 105.231 246.176 108.848C248.396 112.465 251.308 115.609 254.747 118.099C258.186 120.589 262.082 122.376 266.213 123.357C270.345 124.339 274.629 124.496 278.822 123.819C284.909 122.852 290.363 119.509 293.986 114.526C297.609 109.543 299.105 103.326 298.145 97.2423C297.448 92.8626 295.04 88.9386 291.45 86.3322C287.86 83.7257 283.381 82.6496 278.997 83.3403C275.841 83.8402 273.013 85.5725 271.134 88.1561C269.256 90.7398 268.481 93.9631 268.981 97.117C269.157 98.2427 269.554 99.3226 270.148 100.295C270.743 101.267 271.523 102.112 272.445 102.783C273.367 103.453 274.412 103.935 275.521 104.201C276.629 104.468 277.779 104.513 278.906 104.335C279.714 104.205 280.489 103.919 281.187 103.493C281.886 103.061 282.496 102.499 282.983 101.838C283.467 101.173 283.814 100.419 284.004 99.6191C284.194 98.8235 284.226 97.9986 284.1 97.1906C283.91 96.0144 283.262 94.9612 282.297 94.261C281.333 93.5608 280.13 93.2704 278.952 93.4534C278.532 93.52 278.129 93.6686 277.766 93.8907C277.404 94.1128 277.088 94.4042 276.838 94.7481C276.586 95.091 276.405 95.4806 276.306 95.8944C276.206 96.308 276.191 96.7373 276.259 97.1571C276.356 97.7674 276.691 98.3142 277.191 98.6773C277.692 99.0404 278.316 99.1901 278.926 99.0933C279.145 99.0605 279.355 98.9845 279.544 98.8698C279.733 98.755 279.897 98.6038 280.027 98.425C280.158 98.2461 280.251 98.0432 280.301 97.828C280.352 97.6129 280.36 97.3897 280.323 97.1717C280.301 97.0147 280.244 96.8645 280.158 96.7317C280.077 96.5954 279.97 96.4771 279.842 96.3842C279.714 96.2912 279.568 96.2256 279.413 96.1915C279.26 96.15 279.1 96.1426 278.943 96.1699C278.713 96.2076 278.506 96.3338 278.368 96.5216C278.232 96.7062 278.175 96.9371 278.209 97.1637" fill="url(#paint2_radial)"/>
</g>
<g style="mix-blend-mode:multiply" opacity="0.6">
<path style="mix-blend-mode:multiply" d="M784.759 -403.734C507.384 -605.115 119.062 -543.611 -82.4535 -266.381C-227.586 -66.7659 -183.339 212.594 16.3738 357.591C160.162 461.985 361.445 430.105 465.936 286.387C502.06 236.693 516.957 174.699 507.349 114.039C497.741 53.3797 464.417 -0.977159 414.705 -37.0759C396.98 -49.9455 376.891 -59.1995 355.586 -64.3095C334.281 -69.4194 312.176 -70.2852 290.534 -66.8574C268.892 -63.4297 248.137 -55.7756 229.454 -44.3321C210.77 -32.8886 194.525 -17.8798 181.644 -0.162822C162.92 25.6008 155.2 57.7392 160.18 89.1854C165.161 120.632 182.435 148.811 208.204 167.528C226.762 180.999 249.917 186.551 272.574 182.962C295.232 179.373 315.537 166.938 329.024 148.392C338.722 135.03 342.719 118.369 340.137 102.067C337.555 85.7648 328.606 71.1543 315.253 61.443C305.632 54.4602 293.629 51.5825 281.884 53.4428C270.139 55.303 259.613 61.749 252.621 71.363C247.593 78.2885 245.521 86.9242 246.859 95.3739C248.198 103.824 252.837 111.396 259.759 116.429C264.748 120.045 270.97 121.534 277.059 120.57C283.147 119.606 288.604 116.267 292.232 111.286C294.837 107.694 295.909 103.216 295.216 98.8357C294.522 94.455 292.118 90.5283 288.531 87.9167C285.943 86.044 282.717 85.2732 279.561 85.7732C276.404 86.2731 273.575 88.003 271.692 90.5838C271.02 91.5045 270.538 92.5493 270.273 93.6574C270.008 94.7657 269.966 95.9154 270.148 97.04C270.324 98.1644 270.718 99.2433 271.31 100.216C271.908 101.186 272.69 102.031 273.611 102.703C274.275 103.185 275.027 103.532 275.825 103.723C276.623 103.914 277.451 103.947 278.261 103.818C279.072 103.69 279.849 103.404 280.549 102.975C281.248 102.546 281.857 101.984 282.339 101.321C282.687 100.842 282.937 100.299 283.074 99.7235C283.214 99.15 283.236 98.554 283.139 97.9717C283.05 97.3883 282.845 96.8287 282.536 96.3258C282.225 95.8228 281.82 95.3841 281.343 95.0338C280.999 94.7839 280.609 94.6043 280.195 94.5051C279.782 94.4059 279.353 94.3891 278.933 94.4557C278.512 94.5222 278.11 94.6708 277.747 94.893C277.384 95.1151 277.069 95.4064 276.819 95.7504C276.636 95.9967 276.508 96.2787 276.442 96.5779C276.3 97.1804 276.4 97.8147 276.722 98.3436C276.877 98.6078 277.086 98.8363 277.336 99.0142C277.513 99.1405 277.714 99.23 277.926 99.2773C278.142 99.3368 278.369 99.3478 278.59 99.3093C278.807 99.2773 279.015 99.1975 279.198 99.0759C279.385 98.9652 279.549 98.8181 279.678 98.6432C279.771 98.515 279.838 98.3697 279.875 98.2156C279.912 98.0616 279.918 97.9018 279.893 97.7454C279.87 97.5883 279.816 97.4374 279.733 97.302C279.651 97.1665 279.541 97.0494 279.411 96.9579C279.319 96.8887 279.213 96.8401 279.1 96.8151C278.993 96.7817 278.879 96.7762 278.769 96.7991C278.652 96.8121 278.541 96.8532 278.445 96.919C278.345 96.9775 278.259 97.0566 278.193 97.1508" fill="url(#paint3_radial)"/>
</g>
<g style="mix-blend-mode:multiply" opacity="0.6">
<path style="mix-blend-mode:multiply" d="M991.448 100.833C937.844 -237.612 619.847 -468.486 281.173 -414.845C37.3236 -376.223 -129.123 -147.357 -90.5294 96.3134C-62.7409 271.763 102.116 391.441 277.684 363.634C338.392 354.019 392.795 320.698 428.928 271.001C465.06 221.305 479.961 159.304 470.352 98.6378C463.439 54.9658 439.45 15.8299 403.662 -10.162C367.874 -36.154 323.218 -46.8733 279.515 -39.9623C248.05 -34.9715 219.853 -17.6976 201.125 8.06137C182.397 33.8203 174.67 65.9556 179.643 97.4017C183.229 120.045 195.669 140.335 214.225 153.809C232.782 167.284 255.936 172.84 278.595 169.255C294.911 166.652 309.527 157.684 319.233 144.319C328.938 130.955 332.939 114.288 330.356 97.98C328.498 86.2441 322.05 75.7278 312.431 68.7445C302.813 61.7612 290.811 58.883 279.068 60.7431C274.88 61.4105 270.863 62.8899 267.243 65.0978C261.799 68.4295 257.466 73.3004 254.793 79.0939C252.12 84.8874 251.227 91.343 252.227 97.6432C252.703 100.657 253.768 103.547 255.362 106.148C256.956 108.75 259.048 111.012 261.517 112.805C263.987 114.598 266.786 115.886 269.754 116.597C272.723 117.308 275.802 117.428 278.817 116.948C280.989 116.606 283.071 115.839 284.945 114.69C286.819 113.542 288.447 112.034 289.736 110.255C291.034 108.484 291.966 106.472 292.476 104.336C292.988 102.198 293.075 99.9808 292.732 97.8097C292.233 94.6558 290.5 91.8295 287.915 89.9528C285.33 88.0761 282.105 87.3026 278.949 87.8025C276.677 88.1659 274.642 89.4137 273.288 91.2727C271.934 93.1317 271.372 95.4508 271.724 97.7226C271.853 98.5336 272.14 99.3112 272.57 100.011C272.999 100.711 273.563 101.319 274.228 101.801C274.893 102.283 275.647 102.629 276.446 102.819C277.245 103.009 278.074 103.04 278.885 102.91C279.468 102.817 280.027 102.611 280.53 102.302C281.033 101.994 281.471 101.589 281.817 101.111C282.163 100.633 282.412 100.092 282.548 99.5183C282.685 98.9445 282.707 98.3493 282.613 97.767C282.478 96.9191 282.013 96.1592 281.318 95.6547C280.623 95.1502 279.756 94.9422 278.907 95.0766C278.605 95.1292 278.315 95.2356 278.051 95.3905C277.797 95.5577 277.575 95.7694 277.395 96.0154C277.214 96.2647 277.081 96.5462 277.005 96.845C276.936 97.1385 276.928 97.4434 276.983 97.74C277.051 98.1806 277.292 98.5762 277.651 98.8408C278.01 99.0991 278.455 99.2101 278.894 99.1513C279.21 99.0942 279.492 98.9173 279.681 98.6574C279.87 98.3976 279.951 98.0748 279.908 97.7566C279.868 97.5288 279.741 97.3259 279.552 97.1915C279.364 97.0571 279.131 97.0021 278.902 97.0383" fill="url(#paint4_radial)"/>
</g>
<g style="mix-blend-mode:multiply" opacity="0.6">
<path style="mix-blend-mode:multiply" d="M780.03 603.253C981.599 326.014 920.137 -62.045 642.77 -263.373C443.057 -408.369 163.494 -364.091 18.3757 -164.478C-86.1292 -20.7584 -54.2708 180.388 89.5311 284.779C139.25 320.87 201.281 335.744 261.981 326.13C322.682 316.516 377.081 283.201 413.213 233.513C426.095 215.798 435.359 195.722 440.476 174.431C445.594 153.139 446.465 131.05 443.04 109.424C439.615 87.7975 431.96 67.0583 420.514 48.3903C409.067 29.7225 394.052 13.4914 376.327 0.624188C363.565 -8.64192 349.102 -15.3048 333.762 -18.9839C318.422 -22.6631 302.506 -23.2865 286.924 -20.8185C271.342 -18.3505 256.398 -12.8395 242.946 -4.60013C229.494 3.63922 217.797 14.4456 208.523 27.2018C195.04 45.7487 189.48 68.8869 193.065 91.5268C196.651 114.167 209.089 134.454 227.644 147.927C241.013 157.616 257.684 161.607 273.997 159.023C290.309 156.439 304.931 147.492 314.652 134.146C321.637 124.529 324.517 112.534 322.659 100.798C320.8 89.0619 314.354 78.5442 304.738 71.5565C297.81 66.5337 289.169 64.4648 280.713 65.804C272.258 67.1432 264.679 71.781 259.642 78.6991C257.844 81.1667 256.551 83.9642 255.837 86.9314C255.123 89.8986 255.001 92.9774 255.478 95.9916C255.955 99.0057 257.023 101.896 258.619 104.497C260.216 107.099 262.31 109.36 264.781 111.151C266.558 112.444 268.572 113.375 270.709 113.889C272.846 114.403 275.064 114.49 277.235 114.146C279.406 113.802 281.488 113.034 283.361 111.885C285.235 110.736 286.863 109.228 288.153 107.449C289.084 106.167 289.753 104.714 290.124 103.174C290.497 101.638 290.561 100.043 290.314 98.4821C290.067 96.9209 289.513 95.4241 288.684 94.0781C287.855 92.728 286.769 91.5536 285.488 90.6214C283.632 89.2941 281.328 88.7503 279.073 89.1073C276.819 89.4644 274.796 90.6937 273.441 92.5295C272.957 93.1943 272.61 93.9484 272.42 94.748C272.035 96.3591 272.304 98.0566 273.168 99.47C273.592 100.17 274.155 100.776 274.822 101.251C275.298 101.601 275.839 101.852 276.414 101.992C276.988 102.131 277.584 102.155 278.168 102.062C278.752 101.97 279.312 101.763 279.815 101.453C280.318 101.143 280.755 100.736 281.1 100.257C281.351 99.9148 281.533 99.5263 281.633 99.1138C281.733 98.7013 281.751 98.273 281.684 97.8537C281.618 97.4345 281.469 97.0325 281.246 96.6713C281.023 96.31 280.731 95.9965 280.386 95.7489C280.141 95.5663 279.862 95.4346 279.565 95.3615C279.268 95.2884 278.96 95.2753 278.658 95.3232C278.356 95.3746 278.066 95.481 277.802 95.637C277.541 95.8016 277.314 96.0144 277.133 96.264C277.003 96.4413 276.909 96.6426 276.856 96.8563C276.808 97.069 276.801 97.2889 276.836 97.5041C276.869 97.7241 276.944 97.9357 277.058 98.1271C277.176 98.3121 277.327 98.474 277.504 98.605C277.632 98.6983 277.777 98.7654 277.932 98.8025C278.086 98.8395 278.246 98.8458 278.403 98.821C278.559 98.7962 278.709 98.7408 278.845 98.6579C278.98 98.575 279.097 98.4662 279.191 98.3378C279.26 98.2456 279.308 98.1397 279.333 98.0272C279.359 97.914 279.364 97.7971 279.347 97.6822C279.327 97.5725 279.287 97.4674 279.23 97.3718C279.171 97.2726 279.092 97.1869 278.998 97.1205" fill="url(#paint5_radial)"/>
</g>
<g style="mix-blend-mode:multiply" opacity="0.6">
<path style="mix-blend-mode:multiply" d="M275.076 809.191C613.737 755.552 844.84 437.71 791.237 99.2786C752.642 -144.405 523.674 -310.63 279.838 -272.01C104.27 -244.203 -15.5225 -79.4405 12.2659 96.0087C21.8745 156.675 55.2054 211.037 104.926 247.135C154.647 283.234 216.685 298.112 277.392 288.497C321.083 281.555 360.23 257.558 386.226 221.782C412.223 186.005 422.939 141.379 416.02 97.7149C411.036 66.2694 393.757 38.0925 367.985 19.381C342.212 0.669532 310.056 -7.04428 278.588 -2.06391C255.933 1.52799 235.63 13.9647 222.146 32.5113C208.661 51.0579 203.099 74.1958 206.681 96.8369C209.28 113.131 218.241 127.727 231.597 137.424C244.953 147.121 261.614 151.126 277.924 148.561C283.741 147.642 289.319 145.586 294.341 142.512C299.363 139.438 303.729 135.405 307.192 130.645C310.654 125.884 313.144 120.489 314.52 114.766C315.896 109.044 316.13 103.108 315.209 97.2954C313.871 88.8435 309.228 81.2696 302.302 76.2389C295.376 71.2083 286.734 69.1328 278.276 70.4688C272.186 71.4369 266.731 74.7817 263.108 79.7679C259.484 84.7541 257.991 90.9737 258.954 97.0593C259.297 99.234 260.066 101.32 261.218 103.196C262.37 105.073 263.881 106.703 265.665 107.994C267.449 109.285 269.471 110.211 271.615 110.719C273.759 111.227 275.982 111.306 278.156 110.953C281.309 110.446 284.133 108.712 286.01 106.13C287.887 103.548 288.665 100.329 288.173 97.176C287.809 94.9059 286.561 92.8721 284.701 91.5195C282.841 90.1669 280.521 89.6056 278.248 89.9584C277.435 90.0874 276.655 90.374 275.952 90.8019C275.252 91.2261 274.645 91.7888 274.17 92.4554C273.686 93.1203 273.339 93.8743 273.149 94.674C272.959 95.4696 272.927 96.2945 273.053 97.1025C273.144 97.6865 273.349 98.2467 273.658 98.751C273.966 99.2554 274.371 99.6938 274.849 100.041C275.328 100.389 275.87 100.638 276.445 100.775C277.02 100.912 277.617 100.934 278.201 100.84C278.621 100.773 279.024 100.625 279.387 100.402C279.749 100.18 280.065 99.8889 280.315 99.545C280.813 98.8473 281.021 97.9835 280.894 97.1359C280.785 96.527 280.448 95.9822 279.953 95.612C279.704 95.4327 279.422 95.3042 279.124 95.2338C278.826 95.1635 278.516 95.1526 278.214 95.2019C277.777 95.2723 277.386 95.5116 277.125 95.8679C276.868 96.2318 276.762 96.6811 276.83 97.1213C276.855 97.2764 276.906 97.426 276.982 97.5635C277.066 97.7006 277.178 97.8183 277.311 97.909C277.439 98.0033 277.585 98.0691 277.74 98.1016C277.893 98.1445 278.054 98.1518 278.21 98.1232C278.319 98.1251 278.428 98.1079 278.531 98.0723C278.63 98.0137 278.716 97.9347 278.782 97.8405C278.849 97.7513 278.898 97.6506 278.927 97.5433C278.929 97.4297 278.911 97.3166 278.875 97.2089" fill="url(#paint6_radial)"/>
</g>
<g style="mix-blend-mode:multiply" opacity="0.6">
<path style="mix-blend-mode:multiply" d="M-227.635 598.016C49.7398 799.397 438.062 737.893 639.578 460.663C784.71 261.048 740.457 -18.3519 540.71 -163.302C396.922 -267.696 195.639 -235.816 91.1478 -92.0984C55.0198 -42.4033 40.1211 19.5944 49.7291 80.2571C59.3372 140.92 92.665 195.279 142.381 231.378C160.105 244.247 180.192 253.501 201.496 258.611C222.801 263.721 244.904 264.587 266.545 261.159C288.186 257.732 308.94 250.078 327.622 238.635C346.304 227.192 362.549 212.183 375.428 194.467C384.703 181.711 391.373 167.255 395.058 151.925C398.743 136.594 399.37 120.688 396.904 105.117C394.437 89.5451 388.926 74.6121 380.684 61.1703C372.442 47.7286 361.631 36.0414 348.869 26.7761C339.683 20.1009 329.27 15.3006 318.226 12.6495C307.181 9.9984 295.722 9.54847 284.503 11.3254C273.284 13.1024 262.524 17.0714 252.84 23.0056C243.155 28.9398 234.736 36.7229 228.062 45.91C218.364 59.2722 214.367 75.9332 216.949 92.2351C219.531 108.537 228.48 123.148 241.833 132.859C251.454 139.842 263.457 142.719 275.202 140.859C286.947 138.999 297.473 132.553 304.465 122.939C309.493 116.013 311.565 107.378 310.227 98.928C308.888 90.4784 304.249 82.9055 297.328 77.8726C294.859 76.077 292.06 74.7856 289.091 74.0722C286.122 73.3589 283.041 73.2376 280.025 73.7153C277.009 74.193 274.116 75.2604 271.513 76.8563C268.91 78.4522 266.647 80.5453 264.854 83.016C262.25 86.6057 261.177 91.0807 261.87 95.4592C262.564 99.8378 264.967 103.762 268.553 106.372C269.832 107.304 271.284 107.975 272.824 108.346C274.363 108.716 275.961 108.78 277.526 108.532C279.09 108.284 280.59 107.73 281.94 106.902C283.29 106.073 284.463 104.987 285.392 103.705C286.06 102.783 286.538 101.737 286.799 100.63C287.073 99.5236 287.12 98.3732 286.935 97.2485C286.761 96.1226 286.361 95.0434 285.76 94.0751C285.167 93.1085 284.391 92.2674 283.475 91.5988C282.811 91.1168 282.059 90.7702 281.261 90.5788C280.463 90.3875 279.635 90.355 278.825 90.4834C278.014 90.6117 277.237 90.8984 276.537 91.327C275.838 91.7555 275.23 92.3176 274.747 92.9811C274.397 93.4572 274.145 93.998 274.006 94.5719C273.866 95.146 273.842 95.7419 273.935 96.3252C274.027 96.9086 274.234 97.4679 274.544 97.9708C274.854 98.4736 275.261 98.91 275.741 99.2547C276.084 99.5044 276.472 99.6838 276.885 99.783C277.297 99.8822 277.725 99.8991 278.144 99.8328C278.563 99.7664 278.965 99.618 279.327 99.3963C279.689 99.1744 280.003 98.8836 280.252 98.5403C280.433 98.291 280.566 98.0094 280.642 97.7106C280.709 97.4118 280.72 97.1032 280.676 96.8002C280.628 96.4985 280.521 96.2094 280.359 95.95C280.198 95.6906 279.986 95.4661 279.737 95.2897C279.56 95.161 279.359 95.0685 279.146 95.0174C278.933 94.9663 278.712 94.9576 278.496 94.9919C278.28 95.0262 278.072 95.1027 277.886 95.2171C277.699 95.3315 277.536 95.4815 277.408 95.6586C277.309 95.7858 277.239 95.9326 277.202 96.0889C277.165 96.2428 277.158 96.402 277.18 96.5585C277.209 96.7137 277.265 96.8627 277.346 96.9985C277.43 97.1357 277.542 97.2534 277.675 97.344C277.766 97.4117 277.87 97.4605 277.98 97.4875C278.09 97.5146 278.205 97.5194 278.317 97.5016C278.429 97.4838 278.537 97.4439 278.634 97.384C278.73 97.3242 278.814 97.2457 278.88 97.1532" fill="url(#paint7_radial)"/>
</g>
</g>
<defs>
<radialGradient id="paint0_radial" cx="0" cy="0" r="1" gradientUnits="userSpaceOnUse" gradientTransform="translate(-328.24 -541.215) rotate(171) scale(1642.69 1641.58)">
<stop stop-color="#FFE352"/>
<stop offset="0.37" stop-color="#FFA133"/>
<stop offset="0.55" stop-color="#F8598B"/>
<stop offset="0.65" stop-color="#EC5894"/>
<stop offset="1" stop-color="#734BF0"/>
</radialGradient>
<radialGradient id="paint1_radial" cx="0" cy="0" r="1" gradientUnits="userSpaceOnUse" gradientTransform="translate(-328.24 -541.217) rotate(171) scale(1642.69 1641.58)">
<stop stop-color="#FFE352"/>
<stop offset="0.37" stop-color="#FFA133"/>
<stop offset="0.55" stop-color="#F8598B"/>
<stop offset="0.65" stop-color="#EC5894"/>
<stop offset="1" stop-color="#734BF0"/>
</radialGradient>
<radialGradient id="paint2_radial" cx="0" cy="0" r="1" gradientUnits="userSpaceOnUse" gradientTransform="translate(-328.239 -541.215) rotate(171) scale(1642.69 1641.58)">
<stop stop-color="#FFE352"/>
<stop offset="0.37" stop-color="#FFA133"/>
<stop offset="0.55" stop-color="#F8598B"/>
<stop offset="0.65" stop-color="#EC5894"/>
<stop offset="1" stop-color="#734BF0"/>
</radialGradient>
<radialGradient id="paint3_radial" cx="0" cy="0" r="1" gradientUnits="userSpaceOnUse" gradientTransform="translate(-328.24 -541.217) rotate(171) scale(1642.69 1641.58)">
<stop stop-color="#FFE352"/>
<stop offset="0.37" stop-color="#FFA133"/>
<stop offset="0.55" stop-color="#F8598B"/>
<stop offset="0.65" stop-color="#EC5894"/>
<stop offset="1" stop-color="#734BF0"/>
</radialGradient>
<radialGradient id="paint4_radial" cx="0" cy="0" r="1" gradientUnits="userSpaceOnUse" gradientTransform="translate(-328.24 -541.217) rotate(171) scale(1642.69 1641.58)">
<stop stop-color="#FFE352"/>
<stop offset="0.37" stop-color="#FFA133"/>
<stop offset="0.55" stop-color="#F8598B"/>
<stop offset="0.65" stop-color="#EC5894"/>
<stop offset="1" stop-color="#734BF0"/>
</radialGradient>
<radialGradient id="paint5_radial" cx="0" cy="0" r="1" gradientUnits="userSpaceOnUse" gradientTransform="translate(-328.24 -541.215) rotate(171) scale(1642.69 1641.58)">
<stop stop-color="#FFE352"/>
<stop offset="0.37" stop-color="#FFA133"/>
<stop offset="0.55" stop-color="#F8598B"/>
<stop offset="0.65" stop-color="#EC5894"/>
<stop offset="1" stop-color="#734BF0"/>
</radialGradient>
<radialGradient id="paint6_radial" cx="0" cy="0" r="1" gradientUnits="userSpaceOnUse" gradientTransform="translate(-328.239 -541.215) rotate(171) scale(1642.69 1641.58)">
<stop stop-color="#FFE352"/>
<stop offset="0.37" stop-color="#FFA133"/>
<stop offset="0.55" stop-color="#F8598B"/>
<stop offset="0.65" stop-color="#EC5894"/>
<stop offset="1" stop-color="#734BF0"/>
</radialGradient>
<radialGradient id="paint7_radial" cx="0" cy="0" r="1" gradientUnits="userSpaceOnUse" gradientTransform="translate(-328.24 -541.215) rotate(171) scale(1642.69 1641.58)">
<stop stop-color="#FFE352"/>
<stop offset="0.37" stop-color="#FFA133"/>
<stop offset="0.55" stop-color="#F8598B"/>
<stop offset="0.65" stop-color="#EC5894"/>
<stop offset="1" stop-color="#734BF0"/>
</radialGradient>
</defs>
</svg>
